<svg width="139" height="39" viewBox="0 0 139 39" fill="none" xmlns="http://www.w3.org/2000/svg">
<path fill-rule="evenodd" clip-rule="evenodd" d="M137.871 4.14246C137.871 4.18648 137.799 4.2085 137.799 4.2085L137.871 4.14246C136.798 3.57022 135.394 3.24008 134.761 2.33769C134.631 2.22764 134.516 2.13959 134.379 2.05155C134.185 1.2372 132.824 1.17118 132.219 0.620943C131.715 0.114724 130.873 0.00467909 129.994 0.00467909C127.971 -0.03934 125.991 0.246781 123.961 0.048695C123.522 0.0046759 123.068 0.114729 122.607 0.114729C119.734 0.136739 117.171 0.973101 114.435 1.41329C112.275 1.78745 109.979 1.94152 107.891 2.6018C107.444 2.62381 107.005 2.5798 106.717 2.86592C106.753 2.88793 106.789 2.90992 106.811 2.93193H106.796L106.717 2.86592C106.307 2.88793 105.846 2.8659 105.558 3.13002L105.63 3.19605H105.579C105.579 3.19605 105.558 3.17403 105.558 3.13002C104.694 3.43815 103.621 3.26208 102.822 3.65825V3.70226C102.822 3.70226 102.822 3.68026 102.822 3.65825C101.454 3.7683 100.086 3.7903 98.7539 4.0104C95.5427 4.51661 92.3676 5.11088 89.1708 5.68312C88.4508 5.81518 87.6732 5.94725 87.0037 6.23338C86.3773 6.34342 85.6069 6.07931 85.0957 6.54151C85.7437 6.54151 86.3773 6.54151 87.0037 6.49749C86.9821 6.5195 86.9461 6.5195 86.8813 6.54151C86.3125 6.38744 85.7077 6.34342 85.0957 6.54151C84.7861 6.7616 84.2821 6.58551 83.8861 6.76159C83.7133 6.76159 83.4397 6.80561 83.2237 6.82762C81.2293 6.89365 79.1846 7.13576 77.2838 7.39987C74.2382 7.81805 71.1639 8.06016 68.0895 8.34628C67.4127 8.41231 66.6855 8.47833 66.2175 8.89651H66.2391C63.388 8.54436 60.5872 9.20466 57.736 9.13863C57.4768 9.11662 57.2896 9.24868 57.0953 9.40275L57.0089 9.44676L56.8433 9.40275C56.6849 9.44677 56.6849 9.49077 56.7209 9.62283C56.6849 9.62283 56.6633 9.57881 56.6633 9.57881C56.7209 9.53479 56.7929 9.46878 56.8433 9.40275C56.4689 9.2927 56.0729 9.20465 55.5689 9.20465C51.1985 9.31469 46.8786 9.71087 42.501 9.62283C41.0395 9.60082 39.4843 9.57882 38.0587 9.71088C35.8267 9.90897 33.5948 9.7549 31.406 9.90896C31.3484 9.95298 31.2836 9.90896 31.226 9.90896C30.0236 10.063 28.7924 10.107 27.5756 9.88694C27.8276 9.49077 28.7492 9.82092 28.9724 9.33671C28.8428 9.27069 28.7852 9.18265 28.6556 9.18265C25.6821 9.13863 22.6941 9.13862 19.7061 9.11661C19.3173 9.11661 18.9358 9.11661 18.5542 9.11661C18.4246 9.02858 18.2806 9.02858 18.1438 9.11661C17.8558 9.11661 17.6038 9.11661 17.3518 9.11661C16.0198 8.91853 14.7454 8.89652 13.4062 9.11661C13.0318 9.29269 12.6142 9.29269 12.2326 9.11661C12.0598 9.02858 11.9014 8.98455 11.7214 9.05058H11.6854C11.1095 8.89651 10.4831 8.89653 9.83507 8.8305C9.58307 8.8305 9.32388 8.8525 9.07908 8.8525C8.12869 8.30226 6.98391 8.72045 5.91112 8.56638C5.64473 8.34629 5.33513 8.21422 4.95354 8.43432C4.75914 8.58838 4.89594 8.74246 5.13353 8.8305C5.39993 8.8305 5.63753 8.8305 5.90392 8.8305C6.15592 9.02859 6.42952 9.0506 6.78231 9.09462C7.29351 9.16065 8.18629 8.94054 8.12149 9.5348C8.06389 10.063 7.20711 9.86495 6.65991 9.86495C5.19833 9.84294 3.72955 9.46877 2.21037 9.64485L2.09517 9.68886L2.00877 9.64485C1.46878 9.16064 0.698391 9.42474 0 9.35871C0 9.42474 0 9.53479 0 9.62283C0 10.129 0 10.6573 0 11.1855C0 12.8362 0 14.4649 0 16.1156C0 16.3798 0 16.6439 0 16.93C0 17.1721 0 17.4142 0 17.7003C0 18.0085 0 18.3826 0 18.7348C0 20.0113 0 21.3319 0 22.6085C0 24.1931 0 25.7558 0 27.2965C0 29.0132 0 30.752 0 32.4907C0.892788 32.7108 1.20239 32.3147 1.59838 32.0065C1.40398 32.2046 0.964787 32.2927 0 32.4907C0 32.5788 0 32.6448 0 32.7328C0 34.3175 0 35.8582 0 37.3989C0 37.773 0 38.1032 0 38.4553C0 38.5434 0 38.6314 0 38.6974C2.15997 38.5434 4.29114 38.9395 6.42232 38.8955C7.6031 38.8955 8.76948 38.4773 9.92147 38.8075C10.9367 39.0276 12.0166 39.0276 13.0246 38.9615C15.631 38.8295 18.2734 38.8075 20.8941 38.7635C25.7973 38.6974 30.614 38.2352 35.5027 38.1912C35.7547 38.1912 36.0427 38.1912 36.2947 38.1472C38.6851 37.817 41.0971 37.795 43.509 37.707C47.757 37.5749 51.9545 38.0812 56.2385 37.9491C57.5992 37.9271 59.0032 37.8831 60.3064 37.619C61.9264 37.2668 63.6328 37.2448 65.1591 37.4869C67.6359 37.9271 70.0767 37.729 72.5318 37.641C74.627 37.5529 76.8158 37.4649 78.7958 36.7826C80.2717 36.2324 81.7621 35.7041 83.5693 35.8362C84.0733 35.8582 84.6565 35.7041 85.0957 35.5501C88.3428 34.3836 92.022 34.4056 95.5355 34.0754C99.0131 33.7013 102.534 33.5912 105.968 33.085C106.883 32.9309 107.898 32.7989 108.848 32.7549C111.613 32.6888 114.255 32.1826 116.905 31.8084C119.835 31.4123 122.766 31.0381 125.71 30.6639C126.891 30.4879 128.194 30.4879 129.166 29.8496V29.8936C129.497 29.6295 129.994 29.8276 130.311 29.6295C130.873 29.5195 131.24 29.2333 131.585 28.9252C131.11 28.9472 130.635 29.0132 130.167 29.0132C129.901 28.9692 129.519 29.0793 129.21 29.0793C129.109 29.1013 128.979 29.1453 128.893 29.1453C128.029 29.2113 127.323 28.8372 126.445 28.9472C124.753 29.2113 123.054 29.4534 121.29 29.3654C120.858 29.3654 120.404 29.3654 120.087 29.6735C119.965 29.6735 119.835 29.6735 119.734 29.6295C119.698 29.5415 119.698 29.4314 119.698 29.3214C119.886 29.1013 120.145 29.1013 120.462 29.1013C120.728 28.9692 121.038 28.9912 121.282 28.8812C121.412 28.8812 121.57 28.8812 121.736 28.8812C121.981 28.9912 122.233 28.9912 122.492 28.8812C122.6 28.8592 122.708 28.8371 122.809 28.8371C123.046 28.7051 123.392 28.7271 123.601 28.5951H123.63C123.889 28.419 124.076 28.2429 123.63 28.1549C123.392 28.1108 123.104 28.2429 122.809 28.1989C122.456 28.1989 122.074 28.2869 121.736 28.3089C121.57 28.3089 121.405 28.3089 121.282 28.3089C120.901 28.1989 120.519 28.1989 120.138 28.3089C119.886 28.3529 119.634 28.353 119.382 28.353C118.309 28.441 117.164 28.0888 116.214 28.5951C116.077 28.5951 115.947 28.5951 115.832 28.5951C115.832 28.7051 115.832 28.7931 115.832 28.8812C115.767 28.8812 115.767 28.8812 115.724 28.8812C115.789 28.7931 115.89 28.7271 115.832 28.5951C115.098 28.5951 114.414 28.6611 113.679 28.7271C112.527 28.8812 111.289 29.0793 110.051 28.551C110.367 28.441 110.49 28.375 110.684 28.3309C112.65 27.9128 114.81 28.1769 116.811 27.6046C117.596 27.3845 118.431 27.0764 119.382 27.2085C119.698 27.2525 120.591 27.2084 120.786 26.5482C119.295 26.8783 117.949 26.7462 116.17 26.7462C118.741 26.0199 120.93 25.3817 123.126 24.7874C123.471 24.6773 123.918 24.7214 124.306 24.7434C126.294 24.8534 127.316 24.4132 127.964 23.0927V23.0046C127.928 22.8726 127.762 22.7185 127.568 22.6525C127.071 21.4419 125.214 21.0678 123.968 20.3195L124.018 20.3855C123.565 19.3731 123.514 19.3511 121.743 19.263C121.7 19.263 121.671 19.329 121.671 19.329C121.671 19.329 121.642 19.351 121.592 19.329L121.736 19.263C121.592 19.197 121.477 19.0869 121.347 18.9989C121.275 18.6688 121.03 18.5147 120.584 18.4487C120.008 18.2065 119.511 17.9424 118.935 17.6783C118.935 17.7003 118.892 17.7223 118.87 17.7223L118.935 17.6783C118.813 17.5463 118.654 17.4802 118.431 17.4802C118.302 17.4802 118.244 17.4802 118.143 17.4142C117.87 17.3262 117.531 17.2822 117.229 17.2161C117.128 17.2822 117.027 17.2821 116.977 17.1941C116.523 16.7539 116.977 16.4678 117.474 16.2477C118.59 15.6975 119.698 15.1032 120.93 14.663C121.405 14.4649 121.801 14.2889 121.981 13.9587C122.485 12.9683 123.601 12.4621 124.969 12.1099C125.473 11.9558 126.042 11.8238 126.43 11.5157C127.064 11.4496 127.604 11.3176 128.014 10.9874L127.921 10.9214C127.957 10.9214 127.957 10.9214 127.957 10.9214C127.957 10.9434 127.971 10.9654 128.014 10.9874C129.829 10.8994 131.441 10.2171 133.285 10.085C133.724 10.063 134.005 9.71087 133.479 9.42475C133.256 9.3147 133.025 9.24867 132.968 8.96255C133.213 8.89652 133.501 8.78647 133.781 8.65442C134.739 8.28025 135.509 7.61997 136.899 8.03815C137.115 8.10418 137.669 7.90609 137.914 7.77404C139.405 6.80562 139.333 5.17691 137.871 4.14246ZM3.49915 33.7233C3.45596 33.6792 3.42716 33.6132 3.39836 33.5912C3.45596 33.6132 3.55675 33.6352 3.59275 33.7233C3.54955 33.7233 3.53515 33.7453 3.49915 33.7233ZM3.17516 33.063C3.23276 33.019 3.23276 32.997 3.33356 32.997C3.23276 32.997 3.23276 33.063 3.17516 33.063ZM134.638 3.37213C134.602 3.39414 134.638 3.41614 134.581 3.43815C134.638 3.43815 134.581 3.39414 134.638 3.37213ZM109.115 26.5702C109.115 26.5922 109.043 26.5922 109.043 26.6142C109.014 26.5702 108.971 26.6142 108.92 26.5702C109.194 26.4601 109.453 26.262 109.475 25.8879C109.475 25.8439 109.611 25.7998 109.669 25.7338C109.475 25.9759 109.23 26.174 109.23 26.4161C109.244 26.4821 109.115 26.5041 109.115 26.5702ZM12.4774 37.0687C12.4774 37.0247 12.5134 37.0027 12.5134 36.9587C12.5134 37.0027 12.4558 37.0247 12.4774 37.0687ZM108.373 5.17691C108.402 5.17691 108.402 5.17691 108.402 5.17691C108.373 5.17691 108.344 5.17691 108.287 5.17691C108.323 5.17691 108.351 5.17691 108.373 5.17691ZM27.5324 34.4276C27.4892 34.7357 26.8556 34.6697 26.6757 35.0218C26.6757 34.9998 26.6757 35.0438 26.6757 35.0218C27.1148 34.8898 27.4892 34.7357 27.4892 34.4276H27.5324ZM12.7654 35.2419C13.0174 35.1979 13.0822 35.0879 13.111 34.9118C13.2118 35.0658 13.039 35.1539 12.7654 35.2419ZM7.11351 24.1491C7.22871 24.1051 7.3655 24.1051 7.4591 24.0831C7.4375 24.1491 7.3295 24.1271 7.30071 24.1491C7.22871 24.1491 7.17111 24.1491 7.11351 24.1491ZM68.5359 15.0592C68.5359 15.0592 68.5575 15.0592 68.5935 15.0592C68.5863 15.0592 68.5575 15.0592 68.5359 15.0592C68.5359 15.1252 68.5935 15.1692 68.6295 15.2353C68.5359 15.2133 68.5863 15.1252 68.5359 15.0592ZM83.6485 16.5778C84.0157 16.886 84.1813 16.7539 84.4621 16.82C84.2173 16.7319 83.9653 16.7319 83.7133 16.6659C83.6773 16.6439 83.7133 16.6439 83.6485 16.5778ZM131.974 4.6707C131.722 4.71472 131.65 4.8908 131.593 5.04486C131.751 4.93482 131.881 4.80275 131.902 4.6707C131.938 4.6707 131.974 4.6707 131.974 4.6707ZM124.436 8.06015C124.486 8.06015 124.486 8.06015 124.508 8.06015C124.486 8.10417 124.422 8.10417 124.357 8.12618C124.378 8.10417 124.422 8.10417 124.436 8.06015ZM110.418 19.0869C110.418 19.0869 110.439 19.0869 110.439 19.109C110.353 19.153 110.418 19.241 110.382 19.307C110.31 19.307 110.382 19.241 110.31 19.219C110.353 19.175 110.382 19.153 110.418 19.0869C110.418 19.0869 110.382 19.0869 110.382 19.0649C111.08 18.8008 111.08 18.2946 111.21 17.8544C111.073 18.2726 110.756 18.7128 110.418 19.0869ZM101.583 28.8152C101.511 28.9032 101.432 28.9472 101.432 29.0572C101.353 28.9472 101.483 28.9032 101.583 28.8152ZM86.2045 19.9893C85.9021 19.9233 85.5205 19.9233 85.3117 19.6812C85.1677 19.5271 85.4557 19.4611 85.5421 19.329C85.5997 19.6812 85.8661 19.8793 86.2045 19.9893ZM102.75 23.797C102.75 23.863 102.8 23.863 102.75 23.885C102.692 23.863 102.627 23.797 102.584 23.7529C102.656 23.7529 102.692 23.797 102.75 23.797ZM96.8603 28.8592C96.7739 28.7491 96.6659 28.6391 96.5363 28.485C96.7235 28.419 96.8891 28.485 97.0403 28.617C97.0619 28.7051 96.9179 28.7491 96.8603 28.8592ZM73.4174 31.8525C73.4174 31.8084 73.3454 31.7424 73.2878 31.6764C73.2878 31.7424 73.3526 31.7424 73.3886 31.8084C73.4534 31.8084 73.5038 31.8304 73.4174 31.8525ZM42.7098 18.2946C42.6738 18.2946 42.6738 18.3166 42.6738 18.3166V18.2946H42.7098ZM50.4641 15.1692C50.5577 15.2793 50.6873 15.3453 50.7737 15.4554C50.7017 15.4994 50.6225 15.4994 50.6225 15.5874C50.5577 15.4554 50.4929 15.3013 50.4641 15.1692ZM72.0855 19.7472C72.0423 19.7472 72.0207 19.7912 71.9487 19.8132C71.9847 19.7912 71.9487 19.7472 71.9847 19.7252C72.0279 19.7472 72.0495 19.7252 72.0855 19.7472ZM89.0412 21.64C88.5372 21.464 87.9612 21.486 87.4285 21.464C87.954 21.464 88.4652 21.618 89.0412 21.552C89.0412 21.574 89.0412 21.618 89.0412 21.64ZM102.311 14.4209C102.275 14.4209 102.246 14.3989 102.246 14.3989C102.275 14.3989 102.275 14.3989 102.311 14.4209ZM94.686 23.0927C94.686 23.1147 94.686 23.1587 94.6212 23.1587C94.6212 23.1807 94.686 23.1807 94.686 23.2247C94.5924 23.2907 94.5276 23.3568 94.5132 23.4448C94.5132 23.4008 94.5132 23.3788 94.5276 23.3788C94.5636 23.3568 94.5276 23.3348 94.5636 23.3128C94.5996 23.2688 94.6212 23.2467 94.6212 23.1587C94.6212 23.1587 94.6284 23.1587 94.6284 23.1147C94.6284 23.1147 94.6284 23.1147 94.6716 23.0487C94.686 23.0707 94.686 23.0707 94.686 23.0927ZM97.3283 19.4611C97.2923 19.4611 97.2923 19.4611 97.2923 19.4611C97.2923 19.4391 97.3643 19.4391 97.3283 19.4611ZM101.324 18.7128C101.137 18.6467 101.007 18.5147 100.791 18.5587C100.791 18.5147 100.791 18.5147 100.791 18.5147C100.979 18.5587 101.159 18.6247 101.324 18.7128ZM95.8307 16.2697C95.8307 16.2037 95.8307 16.1377 95.8307 16.0936C95.9027 16.0276 96.0323 16.0496 96.0899 16.0496C95.9891 16.1157 95.8523 16.1597 95.8307 16.2697ZM97.2275 19.4831C97.2275 19.4831 97.2635 19.4611 97.2635 19.4831H97.2275C97.2275 19.4831 97.2275 19.5271 97.2059 19.4831C97.2275 19.4831 97.2275 19.4831 97.2275 19.4831ZM71.3151 27.7807C71.3151 27.7807 71.3151 27.8027 71.2935 27.8027C71.3151 27.8027 71.3583 27.7367 71.3151 27.7807ZM77.7662 25.3596C77.831 25.3817 77.8598 25.3596 77.9102 25.3596C77.4566 25.3817 77.183 25.5797 77.0678 25.8659C77.0678 25.8218 77.0966 25.7778 77.0678 25.7558C76.9022 25.3597 77.3558 25.2496 77.7662 25.3596ZM77.8022 26.5482C77.7302 26.5041 77.6726 26.5482 77.6078 26.5482C77.2622 26.5041 77.2262 26.3721 77.183 26.262C77.3558 26.4161 77.5502 26.5041 77.8022 26.5482ZM69.9903 29.2773C69.8463 29.2553 69.7239 29.2553 69.5943 29.2773C69.7311 29.2773 69.8535 29.2113 69.9903 29.2773ZM80.5237 23.6209C80.9485 23.6429 81.2293 23.841 81.5389 23.973C81.2293 23.863 80.9053 23.7089 80.5237 23.6209ZM89.5164 24.8534C89.3508 24.8974 89.2572 24.8974 89.1348 24.8974C89.2284 24.8094 89.3004 24.7214 89.2284 24.5893C89.358 24.6774 89.466 24.7654 89.5164 24.8534ZM64.6479 21.1778C64.6264 21.1999 64.6479 21.2439 64.5832 21.2439C64.6479 21.1998 64.5832 21.1778 64.6479 21.1778ZM110.943 8.65442L111.015 8.72045C111.015 8.72045 110.987 8.65442 110.943 8.65442ZM105.27 8.45633C105.363 8.63241 105.306 8.74246 105.169 8.8305C105.27 8.72045 105.414 8.65442 105.27 8.45633ZM103.196 9.86495C103.146 9.86495 103.074 9.86495 102.987 9.86495C102.966 9.86495 102.966 9.86495 102.966 9.86495C103.023 9.86495 103.081 9.86495 103.146 9.86495H103.196ZM84.6781 21.2879C84.6565 21.2659 84.6205 21.2659 84.5845 21.2439C84.6565 21.2439 84.7213 21.2659 84.7501 21.2439C84.7501 21.2879 84.6781 21.2439 84.6781 21.2879ZM81.4813 21.2219C81.4813 21.2219 81.5389 21.2659 81.5389 21.2879C81.4813 21.2439 81.4165 21.2879 81.3517 21.2439C81.4165 21.2439 81.4597 21.2439 81.4813 21.2219ZM28.6412 30.752C28.6196 30.774 28.6196 30.708 28.5692 30.752C28.5692 30.708 28.5692 30.708 28.6124 30.6419C28.6412 30.708 28.5692 30.73 28.6412 30.752ZM50.3633 20.4295L50.2553 20.3855C50.2553 20.3855 50.3417 20.4295 50.3057 20.3855C50.5577 20.4515 50.6873 20.6496 50.8673 20.7597C50.8673 20.7817 50.8097 20.7596 50.8097 20.7817C50.8097 20.6056 50.5577 20.6056 50.4209 20.4955C50.3921 20.4955 50.3921 20.4515 50.3633 20.4295ZM48.9954 23.1807C48.9666 23.1807 48.9954 23.1807 48.9666 23.1807C48.9594 23.2027 48.9594 23.1807 48.9954 23.1807ZM20.5053 20.3635C20.5413 20.3635 20.5773 20.3635 20.5773 20.3635C20.5773 20.3635 20.5773 20.3635 20.5413 20.3635H20.5053ZM30.362 25.4477C30.2972 25.4917 30.2972 25.5357 30.2324 25.5577C30.2324 25.5357 30.29 25.4697 30.254 25.4477C30.2972 25.4477 30.2972 25.4477 30.362 25.4477ZM27.1508 21.6841C27.0572 21.6841 27.0572 21.574 26.9924 21.53C27.122 21.552 27.2588 21.552 27.3812 21.508C27.3092 21.618 27.3092 21.7061 27.1508 21.6841ZM29.0876 27.2525C29.0876 27.4065 29.1164 27.5606 29.1452 27.7147C29.0876 27.4065 28.8068 27.2305 28.2596 27.2525C28.5476 27.2525 28.8068 27.2305 29.0876 27.2525ZM34.5163 25.4257C34.4875 25.4697 34.4875 25.5137 34.4587 25.5137C34.4371 25.5137 34.3652 25.4917 34.3076 25.4917C34.358 25.4697 34.4299 25.4697 34.5163 25.4257ZM32.0036 24.3032C31.9748 24.3032 31.946 24.3032 31.946 24.2592C31.9676 24.3032 31.9676 24.2372 32.0036 24.2592C32.0036 24.3032 32.0036 24.3032 32.0036 24.3032ZM22.8597 23.863C22.8957 23.819 22.9173 23.863 22.9173 23.863H22.8597ZM17.6614 25.4477C17.719 25.4477 17.719 25.4477 17.719 25.4477C17.683 25.4917 17.6614 25.5577 17.5894 25.6018C17.5894 25.5577 17.719 25.5137 17.6614 25.4477ZM28.778 29.1453C28.5116 29.2333 28.9004 28.9692 28.8572 29.1453C28.8572 29.2113 28.8932 29.2113 28.8932 29.2773C28.8356 29.2333 28.8356 29.1893 28.778 29.1453ZM52.7681 20.2754C52.5881 20.2534 52.4441 20.3855 52.2641 20.3855C52.4297 20.3415 52.5881 20.3415 52.7105 20.2534C52.7105 20.2534 52.7681 20.2534 52.7681 20.2754ZM47.721 16.7539C47.757 16.7539 47.8002 16.7759 47.8002 16.7759C47.757 16.7759 47.757 16.7759 47.757 16.7759L47.721 16.7539ZM25.7901 15.5654V15.5214C25.7901 15.5214 25.8117 15.5214 25.8477 15.5214C25.8477 15.5654 25.7901 15.5214 25.7901 15.5654ZM23.4069 22.3884C23.3709 22.4544 23.3493 22.4764 23.3133 22.4984C23.0829 22.5644 22.9677 22.4984 22.8021 22.4984C23.0181 22.4984 23.2053 22.4984 23.4069 22.3884ZM11.4334 19.4831C11.3687 19.5491 11.2967 19.4831 11.2463 19.5271C11.2463 19.4611 11.3687 19.5271 11.3687 19.4611C11.4047 19.4391 11.4047 19.4831 11.4334 19.4831ZM37.4755 28.6611C37.4755 28.6171 37.4179 28.5951 37.4395 28.551C37.5331 28.551 37.5979 28.551 37.6915 28.551C37.5979 28.6171 37.5331 28.6171 37.4755 28.6611ZM42.9402 28.0448C42.9402 28.0448 42.9402 28.0448 42.9402 28.0668C42.897 28.0448 42.897 28.0448 42.897 28.0448C42.9402 28.0448 42.9402 28.0448 42.9402 28.0448ZM57.5416 28.8592C57.376 28.7491 57.16 28.7051 56.9656 28.6611C56.9152 28.6171 56.8073 28.5951 56.7137 28.551C56.7857 28.5951 56.8361 28.595 56.8649 28.617C56.8433 28.595 56.7857 28.6171 56.7137 28.551C56.8073 28.551 56.8361 28.617 56.9081 28.617C56.9441 28.617 56.9656 28.6611 56.9656 28.6611C57.16 28.6831 57.34 28.7491 57.4984 28.8152C57.5416 28.8372 57.5416 28.8592 57.5416 28.8592C57.5416 28.8812 57.5992 28.9032 57.5992 28.9252C57.5776 28.9032 57.5776 28.9032 57.5416 28.8592ZM82.6909 29.4974C82.7557 29.4974 82.9141 29.4534 82.9357 29.4974C82.9357 29.4974 82.9141 29.5415 82.8709 29.5415C82.8133 29.5195 82.7557 29.4974 82.6909 29.4974ZM100.849 21.552C100.849 21.552 100.885 21.552 100.935 21.552C100.878 21.552 100.849 21.552 100.849 21.552ZM103.196 20.7156C103.239 20.7156 103.239 20.6936 103.268 20.7156C103.196 20.7156 103.268 20.7817 103.196 20.7817C103.196 20.7817 103.196 20.7597 103.196 20.7156ZM107.718 16.3137C108.474 15.8075 109.424 16.2697 110.223 16.1156C109.331 15.8295 108.373 15.8955 107.718 16.3137ZM108.373 14.2228C108.157 13.8267 108.632 13.6506 108.971 13.4305C108.445 13.6066 108.402 13.9587 108.474 14.3109C108.402 14.2668 108.402 14.2448 108.373 14.2228ZM122.96 4.2085L122.924 4.18648C122.924 4.20849 122.924 4.2085 122.96 4.2085ZM72.9998 16.0496C72.9782 16.0496 72.899 16.0496 72.8414 16.0496C72.8774 16.0496 72.9782 16.0276 72.9782 15.9836C72.9782 16.0276 72.9998 16.0276 72.9998 16.0496ZM55.2737 19.9013C55.2737 19.8573 55.3817 19.8793 55.3817 19.8353C55.3457 19.8793 55.3097 19.8793 55.2737 19.9013ZM43.185 20.8037C43.185 20.7597 43.0554 20.7156 43.0554 20.6496C43.0914 20.7156 43.2498 20.7817 43.185 20.8037ZM9.07908 20.4735C9.07908 20.4735 9.07908 20.4955 9.04308 20.4955C9.02148 20.4955 9.04308 20.4955 9.02148 20.4955C9.07908 20.4955 9.07908 20.4955 9.07908 20.4735ZM9.83507 24.6773C9.81347 24.6773 9.77747 24.6774 9.70547 24.6553C9.74867 24.6553 9.77027 24.6553 9.77027 24.6553C9.77027 24.6553 9.83507 24.6553 9.83507 24.6773ZM21.3405 31.1482C21.3189 31.1482 21.3189 31.1482 21.2757 31.1482C21.3117 31.1041 21.2757 31.1041 21.3117 31.0821C21.3117 31.1041 21.3405 31.1041 21.3405 31.1482ZM41.781 25.9319C41.781 25.8659 41.5651 25.9099 41.6659 25.8218C41.7234 25.7558 41.889 25.8439 41.9898 25.7998C41.9178 25.8439 41.8242 25.8659 41.781 25.9319ZM89.61 28.0228C89.7468 27.9128 89.934 27.8687 89.9916 27.7367C90.0636 27.8027 90.1572 27.8247 90.1788 27.8687C90.0276 27.8467 89.8116 27.9348 89.61 28.0228ZM99.6755 26.8783C99.5747 26.8783 99.4523 26.9223 99.3587 26.9663C99.4883 26.9223 99.5531 26.8563 99.6755 26.8783ZM101.619 21.552C101.742 21.574 101.871 21.53 101.958 21.53C101.871 21.53 101.742 21.552 101.619 21.552ZM109.842 15.1692C109.683 15.3013 109.424 15.5214 109.244 15.3893C109.122 15.2353 109.021 15.0592 108.884 14.9051C109.172 15.1032 109.568 15.1912 109.935 15.1472C109.899 15.1692 109.871 15.1252 109.842 15.1692ZM113.291 10.8994C113.291 10.8994 113.291 10.8994 113.262 10.8994C113.55 10.9874 113.737 10.8994 113.996 10.8554C113.744 10.8994 113.55 10.8994 113.291 10.8994ZM88.782 16.7099C88.8252 16.7539 88.854 16.864 88.9116 16.93C88.7532 16.974 88.566 16.952 88.4148 17.018C88.5876 16.908 88.7244 16.864 88.782 16.7099ZM69.1983 17.4802C69.1623 17.4582 69.1263 17.5022 69.0975 17.4802C69.1263 17.4582 69.1263 17.3922 69.1623 17.3702C69.1623 17.4362 69.2199 17.4582 69.1983 17.4802ZM64.18 15.8295C64.2016 15.8295 64.2016 15.8515 64.2016 15.8515V15.8735C64.2016 15.8735 64.18 15.8735 64.18 15.8295ZM56.3321 21.0458C56.3321 21.0678 56.3321 21.0458 56.3537 21.0458H56.3321ZM55.2737 18.8668C55.3097 18.8668 55.3097 18.8668 55.3385 18.8668C55.4105 18.8668 55.3385 18.9549 55.3745 18.9549C55.3457 18.9329 55.3457 18.8668 55.2737 18.8668ZM47.3538 14.1568C47.2458 13.8267 47.0298 13.6066 46.4898 13.4965C46.5114 13.4965 46.5546 13.4965 46.5546 13.4965C47.2458 13.4965 47.1162 13.9147 47.3754 14.1128C47.3754 14.1568 47.3178 14.1348 47.3538 14.1568ZM44.0994 16.974C44.0418 16.974 44.0418 16.974 43.9698 16.974C44.013 16.93 44.0994 16.93 44.1282 16.908C44.1354 16.93 44.0778 16.952 44.0994 16.974ZM39.1171 14.7951C38.9587 14.685 38.8003 14.597 38.7355 14.4209C38.7139 14.3989 38.6779 14.3549 38.6419 14.3109C38.8723 14.3989 38.5483 14.2668 38.7355 14.3989C38.7931 14.575 38.9515 14.685 39.1171 14.7951ZM39.1603 15.0592C39.1819 15.1472 39.2395 15.2132 39.2395 15.2793C39.1891 15.4333 39.0595 15.3453 38.9011 15.3013C39.0235 15.2573 39.2395 15.2353 39.1603 15.0592ZM31.1108 18.1845C31.1108 18.1625 31.1108 18.1625 31.1108 18.1405C31.1612 18.1625 31.1612 18.1625 31.1612 18.1625C31.1612 18.1625 31.1612 18.1845 31.1108 18.1845ZM18.5398 15.6094H18.511C18.5398 15.6094 18.511 15.6094 18.5398 15.6094ZM11.9734 14.8391C11.9374 14.685 11.8438 14.575 11.7142 14.4649C11.8078 14.509 11.9374 14.509 11.9734 14.575C12.031 14.641 11.9374 14.7511 11.9734 14.8391ZM9.83507 31.6764C9.77747 31.6764 9.70547 31.7424 9.65508 31.6764C9.71268 31.6764 9.77747 31.6764 9.83507 31.6764ZM13.0174 30.6419C13.039 30.6419 13.039 30.6199 13.0822 30.6419C12.8158 31.0381 13.2406 31.2362 13.6438 31.4123C13.3054 31.2142 13.2118 30.906 13.0174 30.6419ZM21.1749 31.1482C21.1749 31.1041 21.1749 31.1041 21.1749 31.0821C21.1749 31.1041 21.2037 31.1041 21.2037 31.1482C21.2037 31.1482 21.2037 31.1482 21.1749 31.1482ZM41.0539 28.485C41.1475 28.419 41.2771 28.3309 41.2771 28.2649C41.0899 27.7147 41.4715 27.8027 41.9898 28.0008C42.0474 28.0008 42.177 28.0008 42.2274 28.0008C41.5939 27.8907 41.1475 28.0448 41.0539 28.485ZM43.365 31.1702C43.5666 31.0161 43.7538 30.9501 43.9554 31.0821C44.085 31.1922 44.0202 31.3242 44.1066 31.3903C43.8114 31.3242 43.7538 31.1041 43.365 31.1702ZM64.6479 31.6104C65.1519 31.8965 64.8423 32.0285 64.396 32.1606C64.2592 32.1826 64.2016 32.2486 64.072 32.3147C64.4896 32.1826 64.5256 31.8525 64.6479 31.6104ZM74.5046 33.2391C74.4542 33.2391 74.4542 33.2391 74.4182 33.2391C74.4614 33.2391 74.4614 33.2391 74.5046 33.2391ZM91.1292 31.1482L91.2012 31.1041C91.2012 31.1482 91.1724 31.1482 91.1724 31.1482C91.1292 31.1482 91.1724 31.1482 91.1292 31.1482ZM108.798 21.7941C108.855 21.6841 108.971 21.64 109.115 21.64C108.971 21.64 108.884 21.64 108.798 21.7941ZM126.819 4.95681C126.754 4.84676 126.639 4.78074 126.61 4.6707C126.704 4.73673 126.762 4.89078 126.898 4.95681C126.898 4.9348 126.862 4.95681 126.819 4.95681ZM116.185 6.23338C116.185 6.21137 116.221 6.18934 116.242 6.14532C116.314 6.21135 116.401 6.14532 116.473 6.18934C116.372 6.18934 116.286 6.21137 116.185 6.23338ZM107.898 5.99126C107.869 5.99126 107.84 5.99127 107.84 5.96926C107.84 5.96926 107.898 5.96926 107.934 5.96926C107.898 5.99127 107.898 5.99126 107.898 5.99126ZM66.1743 14.597C66.1743 14.575 66.1743 14.553 66.1095 14.531C66.1455 14.4869 66.1743 14.4869 66.1743 14.4869C66.2319 14.531 66.2679 14.575 66.2967 14.597C66.2679 14.597 66.2319 14.597 66.1743 14.597ZM64.3096 15.9396C64.3384 15.9396 64.36 15.9836 64.4032 15.9836C64.4032 16.0276 64.4032 16.0056 64.4032 16.0276C64.4032 16.0276 64.4032 15.9396 64.3096 15.9396ZM39.5059 17.4582C39.0739 17.1501 39.2323 16.908 39.4699 16.6439C39.3763 17.2381 39.7507 17.5903 40.6723 17.5903C40.3195 17.6783 39.9091 17.7223 39.5059 17.4582ZM35.2435 17.7003C35.1499 17.7003 35.1715 17.6563 35.1139 17.6123C35.1715 17.6123 35.2219 17.5903 35.2435 17.5463C35.2435 17.5903 35.2795 17.6783 35.2435 17.7003ZM14.1622 30.4879C14.0326 30.6199 13.5862 30.5539 13.2406 30.5539C13.3918 30.5759 13.3918 30.4218 13.5358 30.4218C13.939 30.3998 14.3494 30.4439 14.6374 30.1577C14.7022 30.0917 14.731 29.9817 14.731 29.8936C14.8534 29.7175 15.2134 29.8276 15.307 29.6075C15.3646 29.7395 15.4366 29.7395 15.4654 29.8276C15.019 29.7395 14.6014 29.8716 14.1622 30.4879ZM16.9918 31.4123C16.9486 31.4123 16.9486 31.4123 16.9486 31.4123C16.927 31.3683 16.891 31.3682 16.891 31.3682C16.891 31.3682 16.9486 31.3903 16.9918 31.4123ZM62.3872 32.0065C62.488 32.0726 62.6752 32.0946 62.776 32.1606C62.6752 32.0946 62.452 32.0946 62.3872 32.0065ZM64.9143 32.9529C65.1015 33.2171 64.8711 33.4812 64.8711 33.7233C64.9144 33.4592 64.6335 33.2831 64.4032 33.129C64.5256 33.019 64.6479 32.8429 64.9143 32.9529ZM91.8348 31.8745C91.7988 31.8305 91.77 31.8084 91.7268 31.7644C91.8564 31.8084 91.9572 31.8525 92.1444 31.8525C92.1228 31.8525 92.0724 31.8745 92.058 31.8745C91.9932 31.8965 91.8348 31.8965 91.8348 31.8745ZM104.096 24.9635C104.031 24.9635 104.031 24.9195 103.988 24.9195C104.031 24.9635 104.096 24.9635 104.096 25.0075C104.067 24.9855 104.031 24.9855 103.967 24.9635C103.988 24.9635 103.967 24.9635 103.988 24.9195C104.031 24.8975 104.031 24.9195 104.067 24.8974C104.067 24.9415 104.067 24.9635 104.096 24.9635ZM126.063 7.28982V7.2458C126.164 7.31183 126.243 7.2458 126.344 7.2458C126.308 7.2458 126.308 7.2458 126.308 7.28982C126.25 7.28982 126.164 7.28982 126.063 7.28982ZM126.675 3.21807C126.697 3.17405 126.754 3.17405 126.798 3.10802C126.819 3.10802 126.819 3.15203 126.819 3.15203C126.798 3.17404 126.733 3.17405 126.675 3.21807ZM125.516 2.11759H125.552C125.552 2.11759 125.552 2.11759 125.595 2.11759C125.552 2.1396 125.552 2.11759 125.516 2.11759ZM89.4804 9.09462C89.5452 9.11663 89.61 9.09462 89.6604 9.09462C89.61 9.11663 89.5452 9.0506 89.4804 9.09462ZM86.8813 12.5061C86.8813 12.5061 86.9821 12.5061 86.9461 12.5281C86.9461 12.5501 86.9461 12.5501 86.9461 12.5501C86.9461 12.5501 86.9245 12.5281 86.8813 12.5061ZM67.9239 12.9683C67.9239 12.9683 67.9023 13.0123 67.9239 13.0123C67.6143 13.0563 67.3479 13.0123 67.1895 12.9243C67.4127 12.9683 67.6359 13.1224 67.9239 12.9683ZM49.9097 12.4621C49.9673 12.5281 50.0537 12.5941 50.1041 12.6822C50.0105 12.5941 49.8881 12.5721 49.9097 12.4621ZM40.8019 12.6822C41.1475 13.0123 41.5939 13.0783 42.0114 13.1444C41.1475 13.0343 40.2619 13.0123 39.3835 13.1003C39.5635 12.9683 39.7507 12.9463 39.9595 12.8142C40.1395 12.7042 40.6075 12.5061 40.8019 12.6822ZM37.6339 13.0563C37.6555 13.0563 37.6555 13.0563 37.6555 13.0563C37.7131 13.0563 37.7131 13.0563 37.7563 13.0563C37.7131 13.0563 37.6555 13.0343 37.6339 13.0563ZM36.3379 13.8487C36.0715 13.8267 35.8195 13.7826 35.6611 13.6286C35.8555 13.7606 36.0715 13.8267 36.3379 13.8487ZM14.0974 12.6381C14.0614 12.6161 14.1622 12.6161 14.119 12.6161L14.1622 12.6381C14.1262 12.6381 14.0974 12.6381 14.0974 12.6381ZM19.9365 35.8362C19.9365 35.8582 19.9365 35.9022 19.9365 35.9022C19.9365 35.8582 19.9365 35.8582 19.9365 35.8362ZM20.3829 36.2544C20.4549 36.2544 20.4549 36.2544 20.5125 36.2544C20.2245 36.4084 20.3829 36.5625 20.4909 36.7386C20.2533 36.5845 20.2533 36.4084 20.3829 36.2544ZM29.8436 33.2391C29.786 33.2391 29.6852 33.2391 29.6276 33.2391C29.6852 33.217 29.786 33.2391 29.8436 33.2391ZM53.9201 35.0658C53.9201 35.0218 53.9201 35.0218 53.9201 35.0218C53.9201 35.0218 53.9561 35.0218 53.9777 35.0658C53.9561 35.0658 53.9561 35.0658 53.9201 35.0658ZM113.766 21.486C113.737 21.508 113.737 21.464 113.701 21.486C113.737 21.486 113.737 21.486 113.809 21.486H113.766ZM120.152 21.8601C120.152 21.8601 120.231 21.8161 120.231 21.8601H120.188C120.152 21.8601 120.152 21.8601 120.152 21.8601ZM122.564 2.51375C122.636 2.55777 122.694 2.51375 122.794 2.55777C122.665 2.55777 122.506 2.55777 122.377 2.55777C122.449 2.51375 122.506 2.53576 122.564 2.51375ZM106.364 5.37499C106.364 5.41901 106.364 5.44103 106.364 5.44103C106.364 5.46304 106.364 5.41901 106.364 5.37499ZM73.7414 11.7578C73.9502 11.7137 74.1734 11.7137 74.2742 11.5597C74.1374 11.6697 73.9142 11.7578 73.7414 11.7578ZM61.48 13.7826C61.408 13.7386 61.372 13.7386 61.3576 13.6726C61.4152 13.7166 61.4368 13.7166 61.48 13.7386V13.7826ZM33.1484 12.264C33.2132 12.286 33.2132 12.308 33.2492 12.308C33.2132 12.308 33.2132 12.286 33.1916 12.308C33.1916 12.308 33.1484 12.308 33.1484 12.264ZM31.3196 12.6161C31.1756 12.6822 30.9956 12.6161 30.8012 12.6161C31.3196 12.6822 31.8812 12.9463 32.3276 12.4401C32.3276 12.4841 32.3492 12.4841 32.3492 12.5061C32.1044 12.396 31.8236 12.374 31.3196 12.6161ZM7.6535 13.7166C7.6535 13.6726 7.6535 13.6506 7.6175 13.6286C7.6751 13.6506 7.7975 13.6286 7.8839 13.6286C7.8047 13.6726 7.7471 13.6506 7.6535 13.7166ZM7.11351 13.6066C6.98391 13.3204 6.93351 13.0563 6.86151 12.7262C6.92631 12.9463 7.04151 13.1224 7.17111 13.2984C7.20711 13.3865 7.04871 13.4965 7.11351 13.6066ZM7.11351 13.8927C7.14951 13.9367 7.04871 13.9587 7.11351 14.0027V14.0248C7.09191 14.0248 7.04871 14.0248 7.04871 14.0248C7.04871 14.0248 7.09191 14.0247 7.11351 14.0027C7.04871 14.0027 7.04871 14.0247 6.98391 14.0467C7.04871 14.0247 7.09191 13.9587 7.11351 13.8927ZM10.6631 36.6065C10.6055 36.7166 10.7351 36.8266 10.6631 36.9367C10.6055 36.8266 10.6055 36.7166 10.5479 36.6065C10.5695 36.6065 10.6055 36.6065 10.6631 36.6065ZM14.9182 36.8486C15.055 36.9807 14.9974 37.0247 15.055 37.1347C15.019 37.2448 15.019 37.3548 14.9974 37.4649C15.055 37.2448 15.1774 37.0687 14.9182 36.8486ZM55.1297 36.1223C55.1297 36.1443 55.1945 36.1223 55.1945 36.1443C55.1297 36.1443 55.0577 36.1883 54.9929 36.2103C55.0361 36.1883 55.0937 36.1663 55.1297 36.1223ZM82.7197 34.5376C82.7557 34.4936 82.8133 34.5376 82.8709 34.4936C82.9357 34.5376 83.0077 34.5816 83.1373 34.6257C83.0581 34.6257 83.0365 34.6257 83.0077 34.6257C82.8709 34.6257 82.8133 34.5376 82.7197 34.5376ZM107.552 29.8936H107.523C107.711 29.8716 107.84 29.7616 107.948 29.7395C107.84 29.7616 107.682 29.8056 107.552 29.8936ZM120.296 20.2754C120.26 20.2314 120.188 20.1654 120.354 20.2094C120.354 20.2094 120.354 20.2534 120.382 20.2754C120.354 20.2754 120.318 20.2754 120.296 20.2754ZM115.904 13.4965C116.084 13.4965 116.12 13.3644 116.358 13.4085C116.314 13.5405 116.286 13.6286 116.286 13.7826C116.358 13.5845 116.07 13.5846 115.904 13.4965ZM124.99 9.05058C125.149 9.00656 125.372 8.89652 125.516 8.96255C125.329 8.87451 125.17 9.05058 124.99 9.05058ZM131.528 2.33769C131.902 2.1396 132.226 1.96352 131.902 1.58936C131.902 1.58936 131.902 1.58936 131.938 1.58936C131.974 1.89749 131.463 2.02954 131.564 2.35969L131.528 2.33769ZM110.195 3.83433C110.065 3.83433 110.036 3.92236 109.899 3.92236C109.986 3.87835 110.123 3.85633 110.216 3.81231C110.195 3.7903 110.195 3.83433 110.195 3.83433ZM47.433 11.5377C47.433 11.6257 47.5914 11.7137 47.5698 11.7137C47.541 11.7137 47.5194 11.7358 47.5194 11.7358C47.5122 11.6477 47.433 11.5817 47.433 11.5377ZM32.8316 11.4276C32.8316 11.3176 32.7092 11.3396 32.7092 11.2515C32.8316 11.2956 33.062 11.2075 33.2132 11.1855C33.0836 11.2735 32.9612 11.3176 32.8316 11.4276ZM30.866 11.1855C30.9956 11.1195 31.1612 11.0535 31.1612 10.8774C31.1756 11.0755 31.0316 11.1415 30.866 11.1855ZM3.10316 16.0936C3.04556 16.0496 2.92316 16.0936 2.85836 15.9836C3.20396 15.9836 3.01676 15.7415 3.13916 15.6534C3.10316 15.8075 3.05276 15.9836 3.10316 16.0936ZM10.5479 37.773C10.5479 37.773 10.5047 37.773 10.4831 37.773H10.5479ZM15.055 37.685V37.641H15.1846H15.3718C15.3718 37.685 15.4006 37.641 15.4366 37.685C15.307 37.685 15.1774 37.685 15.055 37.685ZM36.5755 35.9022C36.6475 35.9022 36.6979 35.9682 36.8419 36.0123C36.7339 36.0343 36.7627 36.0343 36.6979 36.0563C36.5395 36.0123 36.3307 36.0123 36.1723 35.9902C36.2875 35.9462 36.4531 35.9462 36.5755 35.9022ZM107.523 29.5855C107.523 29.5855 107.523 29.5635 107.552 29.5635C107.552 29.5855 107.588 29.5855 107.588 29.5855C107.588 29.5855 107.552 29.5855 107.523 29.5855ZM107.451 27.7807C107.639 27.6486 107.639 27.4726 107.768 27.3405C107.84 27.2965 107.999 27.3185 108.085 27.3185C107.768 27.4285 107.682 27.6486 107.451 27.7807ZM112.47 25.6018C112.412 25.6898 112.412 25.7338 112.34 25.7998C112.34 25.7338 112.34 25.6458 112.311 25.5797C112.391 25.5797 112.412 25.5798 112.47 25.6018ZM134.746 6.27739C134.768 6.27739 134.768 6.29939 134.768 6.29939C134.768 6.29939 134.71 6.29941 134.71 6.34343C134.667 6.32142 134.768 6.32141 134.746 6.27739ZM137.468 4.42858H137.54C137.482 4.42858 137.482 4.42858 137.468 4.42858ZM135.596 3.59223C135.689 3.63625 135.754 3.68026 135.841 3.72428C135.754 3.70227 135.682 3.61424 135.596 3.59223ZM134.638 3.086C134.638 3.086 134.638 3.15203 134.602 3.15203C134.473 3.08601 134.429 3.06401 134.314 3.01999C134.451 3.01999 134.516 3.086 134.638 3.086ZM121.93 1.30324C121.606 1.19319 121.297 1.14916 120.98 1.32524C121.03 1.30323 121.052 1.30323 121.081 1.28122C121.146 1.17118 121.052 1.06112 121.052 0.951073C121.268 0.951073 121.498 0.951076 121.758 0.907057C121.758 1.08313 121.822 1.19319 121.93 1.30324ZM105.198 3.68027C105.198 3.65826 105.241 3.65826 105.241 3.63625C105.27 3.65826 105.306 3.68027 105.342 3.68027C105.306 3.68027 105.306 3.72428 105.241 3.72428C105.241 3.70227 105.241 3.68027 105.198 3.68027ZM11.5559 10.3932C11.5271 10.4592 11.4262 10.5032 11.4982 10.5692C11.4262 10.5032 11.4263 10.4592 11.4263 10.3932C11.4983 10.3932 11.5271 10.3932 11.5559 10.3932ZM2.13117 32.2706C2.09517 32.4027 2.22477 32.4907 2.38317 32.5788C2.31117 32.6228 2.28957 32.6228 2.22477 32.6448C2.31117 32.4687 2.07357 32.4247 2.13117 32.2706ZM82.3669 35.396C82.6261 35.462 82.8133 35.33 83.0653 35.33C82.4893 35.462 81.9277 35.484 81.4237 35.5941C81.7477 35.528 82.0213 35.374 82.3669 35.396ZM90.8196 33.9654C91.518 33.9213 92.2092 33.8553 92.922 33.8113C91.1292 33.9874 89.358 34.3395 87.5724 34.6477C88.6596 34.3615 89.6676 34.0534 90.8196 33.9654ZM107.955 28.551V28.529C108.294 28.8151 108.726 28.9472 109.244 28.9472C109.244 28.9912 109.244 28.9912 109.266 28.9912C108.798 28.8592 108.474 28.573 107.955 28.551ZM117.999 18.0525C118.035 18.0525 118.064 18.0085 118.114 17.9865C118.064 17.9865 118.114 18.0965 118.064 18.0525C118.035 18.0525 117.999 18.0525 117.999 18.0525ZM115.458 17.6783C115.494 17.6343 115.393 17.5683 115.458 17.5243C115.458 17.5903 115.436 17.6563 115.458 17.6783ZM88.5876 6.49749C88.6596 6.47548 88.6236 6.45347 88.6596 6.43146C88.6596 6.45347 88.6236 6.47548 88.5876 6.49749C88.5876 6.5195 88.5876 6.56351 88.5876 6.58552C88.53 6.56351 88.5588 6.5195 88.5012 6.49749C88.5372 6.49749 88.5876 6.49749 88.5876 6.49749ZM83.4397 7.13575C83.4901 7.13575 83.5045 7.13575 83.5045 7.13575C83.5045 7.15776 83.4397 7.11374 83.4397 7.13575ZM33.1196 10.1511C33.0836 10.1951 32.9756 10.1511 32.9612 10.1731C32.8316 10.1291 32.7452 10.085 32.6156 10.063C32.774 10.085 32.9612 10.1291 33.1196 10.1511ZM17.8198 9.35871C18.187 9.38072 18.5686 9.35872 18.9574 9.33671C18.223 9.3147 17.5318 9.53481 16.8334 9.66687C17.179 9.55682 17.395 9.3367 17.8198 9.35871ZM1.01519 21.6841C1.46878 21.64 1.84318 21.464 2.21757 21.3099C1.77838 21.464 1.46158 21.7061 1.13759 21.9262C1.07279 21.8601 0.957588 21.7941 1.01519 21.6841ZM2.21757 31.7644C2.25357 31.8745 2.15277 32.0726 2.08797 32.2266C2.14557 32.0726 2.02317 31.9625 2.00157 31.8084C2.02317 31.8084 2.15277 31.8305 2.21757 31.7644ZM120.152 29.8716C120.094 29.8936 120.066 29.9376 120.022 29.9816C119.994 29.9816 119.965 29.9816 119.965 29.9816C120.03 29.9376 120.094 29.8936 120.152 29.8716Z" fill="#FFBD00"/>
</svg>
